<?xml version="1.0" encoding="utf-8"?>
<!-- Generator: Adobe Illustrator 26.0.3, SVG Export Plug-In . SVG Version: 6.00 Build 0)  -->
<svg version="1.1" id="Layer_1" xmlns="http://www.w3.org/2000/svg" xmlns:xlink="http://www.w3.org/1999/xlink" x="0px" y="0px"
	 viewBox="0 0 32 32" style="enable-background:new 0 0 32 32;" xml:space="preserve">
<path d="M16,26.23c-0.66,1.14-1.27,2.17-1.86,3.22c-0.19,0.35-0.4,0.52-0.83,0.51c-1.61-0.03-3.23,0.01-4.84-0.03
	c-0.27-0.01-0.64-0.21-0.77-0.43c-0.84-1.37-1.65-2.77-2.42-4.18c-0.13-0.24-0.13-0.66,0-0.9c0.57-1.08,1.2-2.12,1.87-3.29
	c-1.31,0-2.5-0.02-3.7,0.01c-0.43,0.01-0.69-0.1-0.91-0.5c-0.77-1.39-1.57-2.76-2.38-4.12c-0.21-0.35-0.22-0.62,0-0.98
	c0.82-1.36,1.57-2.76,2.4-4.11c0.15-0.25,0.54-0.47,0.83-0.48c1.2-0.05,2.4-0.02,3.76-0.02c-0.63-1.1-1.17-2.1-1.78-3.06
	c-0.31-0.49-0.31-0.87,0-1.36c0.8-1.29,1.55-2.6,2.28-3.93c0.22-0.39,0.48-0.52,0.91-0.52c1.57,0.02,3.13,0.02,4.7,0
	c0.41-0.01,0.65,0.13,0.85,0.49C14.7,3.61,15.33,4.66,16,5.8c0.65-1.13,1.28-2.17,1.86-3.24c0.21-0.39,0.47-0.52,0.91-0.52
	c1.54,0.03,3.08,0.03,4.63,0c0.47-0.01,0.74,0.12,0.97,0.55c0.75,1.37,1.54,2.72,2.34,4.06c0.23,0.38,0.23,0.67,0,1.04
	c-0.62,1.02-1.2,2.06-1.87,3.22c1.3,0,2.47,0.03,3.64-0.01c0.5-0.02,0.78,0.16,1.02,0.59c0.76,1.37,1.54,2.72,2.34,4.06
	c0.2,0.33,0.2,0.58,0,0.91c-0.84,1.41-1.63,2.84-2.48,4.23c-0.13,0.21-0.47,0.4-0.72,0.41c-1.22,0.04-2.45,0.02-3.81,0.02
	c0.63,1.09,1.19,2.12,1.81,3.11c0.27,0.44,0.29,0.78,0.01,1.24c-0.8,1.31-1.57,2.65-2.31,3.99c-0.21,0.38-0.44,0.49-0.85,0.48
	c-1.59-0.02-3.18-0.03-4.77,0c-0.46,0.01-0.69-0.16-0.89-0.53C17.26,28.39,16.66,27.37,16,26.23z M22.49,19.8
	c-0.61-1.06-1.11-2.04-1.71-2.95c-0.38-0.58-0.4-1.04-0.02-1.62c0.6-0.92,1.11-1.89,1.7-2.93c-1.33,0-2.53-0.02-3.73,0.01
	c-0.42,0.01-0.65-0.13-0.85-0.49c-0.59-1.07-1.22-2.12-1.88-3.26c-0.63,1.08-1.24,2.08-1.79,3.12c-0.26,0.5-0.59,0.66-1.14,0.64
	c-1.14-0.04-2.28-0.01-3.54-0.01c0.51,0.89,0.87,1.71,1.4,2.41c0.7,0.92,0.69,1.7,0.01,2.62c-0.54,0.73-0.93,1.59-1.43,2.47
	c1.33,0,2.51,0.03,3.69-0.01c0.51-0.02,0.78,0.17,1.01,0.6c0.56,1.03,1.16,2.03,1.79,3.11c0.65-1.13,1.26-2.16,1.84-3.21
	c0.2-0.36,0.43-0.5,0.85-0.5C19.91,19.81,21.13,19.8,22.49,19.8z M7.17,19.79c-0.59-1.03-1.1-1.92-1.63-2.81
	c-0.08-0.14-0.28-0.3-0.42-0.3c-1.05-0.03-2.09-0.01-3.27-0.01c0.6,1.05,1.13,1.98,1.68,2.9c0.07,0.11,0.27,0.21,0.41,0.21
	C4.97,19.8,6,19.79,7.17,19.79z M27.6,19.79c-0.61-1.06-1.15-1.99-1.69-2.91c-0.05-0.09-0.18-0.19-0.27-0.2
	c-1.08-0.01-2.17-0.01-3.36-0.01c0.59,1.03,1.09,1.93,1.63,2.8c0.09,0.15,0.32,0.29,0.5,0.3C25.41,19.81,26.42,19.79,27.6,19.79z
	 M13.44,21.81c-0.57,0.98-1.09,1.86-1.58,2.76c-0.08,0.15-0.08,0.43,0,0.58c0.49,0.9,1.01,1.78,1.58,2.75
	c0.58-1,1.11-1.91,1.63-2.83c0.06-0.1,0.08-0.29,0.03-0.39C14.57,23.75,14.03,22.82,13.44,21.81z M13.44,10.23
	c0.59-1.01,1.11-1.9,1.62-2.79c0.07-0.12,0.09-0.34,0.03-0.45c-0.52-0.94-1.06-1.86-1.64-2.86c-0.56,0.97-1.08,1.84-1.56,2.73
	c-0.09,0.17-0.09,0.47,0,0.64C12.36,8.38,12.87,9.25,13.44,10.23z M23.66,10.22c0.56-0.97,1.07-1.84,1.56-2.72
	c0.08-0.15,0.14-0.4,0.07-0.52c-0.51-0.93-1.05-1.84-1.63-2.85c-0.58,1-1.11,1.89-1.61,2.79c-0.07,0.13-0.07,0.38,0,0.52
	C22.55,8.34,23.07,9.22,23.66,10.22z M8.34,12.97c-0.57,0.99-1.1,1.88-1.6,2.78c-0.07,0.12-0.11,0.34-0.04,0.45
	c0.52,0.94,1.06,1.86,1.64,2.87c0.58-1,1.11-1.88,1.6-2.78c0.08-0.15,0.05-0.42-0.03-0.58C9.42,14.81,8.9,13.95,8.34,12.97z
	 M23.66,27.91c0.55-0.95,1.07-1.81,1.54-2.7c0.1-0.19,0.09-0.52-0.01-0.7c-0.47-0.89-0.99-1.75-1.53-2.7
	c-0.56,0.97-1.1,1.87-1.6,2.79c-0.08,0.15-0.05,0.43,0.03,0.58C22.57,26.06,23.09,26.93,23.66,27.91z M28.76,19.07
	c0.59-1.01,1.11-1.9,1.62-2.79c0.07-0.12,0.09-0.34,0.02-0.45c-0.52-0.94-1.06-1.86-1.64-2.86c-0.56,0.97-1.08,1.84-1.55,2.72
	c-0.09,0.17-0.1,0.47-0.01,0.64C27.67,17.22,28.19,18.08,28.76,19.07z M6.95,6.52c1.16,0,2.21,0.01,3.26-0.01
	c0.14,0,0.32-0.12,0.39-0.23c0.54-0.9,1.06-1.81,1.66-2.84c-1.18,0-2.23-0.01-3.27,0.01c-0.14,0-0.32,0.13-0.39,0.25
	C8.05,4.59,7.54,5.51,6.95,6.52z M17.16,6.52c1.16,0,2.19,0.01,3.22-0.01c0.14,0,0.35-0.08,0.42-0.19c0.55-0.92,1.07-1.85,1.67-2.89
	c-1.17,0-2.2-0.02-3.22,0.02c-0.17,0-0.39,0.18-0.48,0.34C18.24,4.64,17.75,5.52,17.16,6.52z M17.18,7.85
	c0.58,1.01,1.08,1.88,1.59,2.74c0.08,0.14,0.28,0.3,0.43,0.3c1.04,0.03,2.09,0.01,3.27,0.01c-0.6-1.04-1.11-1.95-1.65-2.85
	c-0.07-0.11-0.27-0.2-0.41-0.21C19.38,7.84,18.35,7.85,17.18,7.85z M7.14,12.29c-1.17,0-2.2-0.01-3.23,0.01
	c-0.13,0-0.31,0.06-0.37,0.15c-0.56,0.93-1.09,1.87-1.67,2.89c1.13,0,2.12,0.02,3.1-0.01c0.2-0.01,0.47-0.14,0.57-0.29
	C6.07,14.18,6.56,13.3,7.14,12.29z M22.29,15.34c1.15,0,2.18,0,3.2-0.01c0.13,0,0.32-0.04,0.38-0.13c0.56-0.93,1.1-1.88,1.7-2.91
	c-1.16,0-2.17-0.01-3.18,0.01c-0.16,0-0.4,0.1-0.48,0.22C23.38,13.42,22.87,14.34,22.29,15.34z M6.98,24.17c1.17,0,2.22,0,3.27-0.01
	c0.1,0,0.26-0.05,0.31-0.13c0.56-0.93,1.1-1.88,1.7-2.91c-1.16,0-2.17-0.01-3.18,0.01c-0.16,0-0.4,0.09-0.48,0.21
	C8.07,22.24,7.56,23.16,6.98,24.17z M17.19,24.17c1.15,0,2.18,0.01,3.21-0.01c0.15,0,0.36-0.08,0.42-0.19
	c0.55-0.91,1.07-1.85,1.64-2.85c-1.14,0-2.15-0.01-3.16,0.01c-0.16,0-0.4,0.09-0.47,0.22C18.28,22.25,17.77,23.16,17.19,24.17z
	 M6.97,25.55c0.61,1.05,1.14,1.98,1.68,2.9c0.05,0.08,0.19,0.16,0.29,0.16c1.06,0.01,2.13,0.01,3.31,0.01
	c-0.59-1.02-1.1-1.91-1.62-2.79c-0.07-0.12-0.25-0.25-0.38-0.25C9.21,25.54,8.16,25.55,6.97,25.55z M22.48,28.61
	c-0.59-1.02-1.1-1.91-1.63-2.79c-0.07-0.12-0.25-0.25-0.39-0.26c-1.05-0.02-2.1-0.01-3.28-0.01c0.59,1.02,1.11,1.93,1.65,2.83
	c0.08,0.13,0.31,0.22,0.48,0.22C20.32,28.62,21.32,28.61,22.48,28.61z M6.97,7.85c0.59,1.03,1.09,1.92,1.62,2.8
	c0.07,0.12,0.26,0.25,0.39,0.25c1.05,0.02,2.09,0.01,3.28,0.01c-0.59-1.02-1.11-1.93-1.65-2.82c-0.08-0.13-0.31-0.22-0.47-0.23
	C9.13,7.84,8.13,7.85,6.97,7.85z"/>
</svg>
